inDegrees=yes
name=ik_S44_A07_T01
DataType=double
version=3
OpenSimVersion=4.3-2021-08-27-4bc7ad9
endheader
time	pelvis_tilt	pelvis_list	pelvis_rotation	pelvis_tx	pelvis_ty	pelvis_tz	hip_flexion_r	hip_adduction_r	hip_rotation_r	knee_angle_r	knee_angle_r_beta	ankle_angle_r	subtalar_angle_r	mtp_angle_r	hip_flexion_l	hip_adduction_l	hip_rotation_l	knee_angle_l	knee_angle_l_beta	ankle_angle_l	subtalar_angle_l	mtp_angle_l	lumbar_extension	lumbar_bending	lumbar_rotation	arm_flex_r	arm_add_r	arm_rot_r	elbow_flex_r	pro_sup_r	wrist_flex_r	wrist_dev_r	arm_flex_l	arm_add_l	arm_rot_l	elbow_flex_l	pro_sup_l	wrist_flex_l	wrist_dev_l
16.09999999999975	-9.348082988611338	-2.97320022037809	20.40816965290824	0	0.9399999999999999	0	34.53792737850475	-11.56520287054423	-9.613545253039753	54.87691102477504	0.9577827807063	0	0	0	34.53792737850475	-11.56520287054423	-9.613545253039753	54.87691102477504	0.9577827807063	0	0	0	-5.14039931220884	-4.843251031889493	17.48290760058388	73.05504282993114	-8.224616146097777	6.573755235994692	99.79599313683272	108.528924131793	0	0	41.64684000098296	2.684660308068314	3.132874438920767	36.79214863640798	132.338139718557	0	0
16.11999999999975	-9.35425253424434	-2.969102693180861	20.45297411164933	0	0.9399999999999999	0	34.541361513942	-11.5634513577401	-9.613822863899031	54.87693775706813	0.9577832472728309	0	0	0	34.541361513942	-11.5634513577401	-9.613822863899031	54.87693775706813	0.9577832472728309	0	0	0	-5.148711865706532	-4.829833073769598	17.42253727578499	73.04463982742108	-7.958494356416531	6.793435321333503	99.17978330929543	108.8798664406153	0	0	41.64982382976561	2.675606254267253	3.102323377858989	36.80690236196547	132.3203475332527	0	0
16.13999999999974	-9.345357475525299	-2.97410923107272	20.38417258632798	0	0.9399999999999999	0	34.54486966583016	-11.56168494122024	-9.614104164640215	54.87696538654596	0.9577837294981898	0	0	0	34.54486966583016	-11.56168494122024	-9.614104164640215	54.87696538654596	0.9577837294981898	0	0	0	-5.139675939541446	-4.844811793097701	17.49901966932672	73.03263288801639	-7.924650705194492	6.73732116542501	98.19537742305032	109.1311624897083	0	0	41.6419690961663	2.67702197220072	3.157654579566025	36.8027553264263	132.3121503891725	0	0
16.15999999999974	-9.347785885332845	-2.977725406646034	20.47482207510374	0	0.9399999999999999	0	34.5495482335901	-11.55928633840687	-9.61448375955719	54.87700156216878	0.9577843608819169	0	0	0	34.5495482335901	-11.55928633840687	-9.61448375955719	54.87700156216878	0.9577843608819169	0	0	0	-5.148921452771169	-4.834071679999568	17.38995565439168	73.20380874662089	-7.261271358099525	7.304998773046218	97.68599579932254	109.7565869235237	0	0	41.68515157155129	2.66401003424723	3.179805255975209	36.79177081186639	132.2720755889722	0	0
16.17999999999974	-9.338502968449987	-2.976167605770916	20.58288213829783	0	0.9399999999999999	0	34.55336454564679	-11.55737088513888	-9.61478922124628	54.87703167234687	0.9577848864036629	0	0	0	34.55336454564679	-11.55737088513888	-9.61478922124628	54.87703167234687	0.9577848864036629	0	0	0	-5.143696243528027	-4.827307894693277	17.31634054594119	73.23027291226745	-7.016182405355919	7.521001611548845	96.41912483686376	110.3078659469315	0	0	41.6622042669969	2.695493399398375	3.2003888444814	36.76625420778615	132.2670703981988	0	0
16.19999999999974	-9.332588178488848	-3.000561553757578	20.81645298439785	0	0.9399999999999999	0	34.55899104063757	-11.55454052718243	-9.615240300626327	54.87707593030282	0.9577856588507144	0	0	0	34.55899104063757	-11.55454052718243	-9.615240300626327	54.87707593030282	0.9577856588507144	0	0	0	-5.158409457810956	-4.828018725412141	17.08938391026835	73.4538804429101	-6.435454559011485	7.874582907409114	93.70657846859447	111.2171844279546	0	0	41.68907114772034	2.671785456535502	3.213346839173542	36.76871896813945	132.280173272926	0	0
16.21999999999974	-9.323766152029185	-3.004711938863977	20.97071712188916	0	0.9399999999999999	0	34.56287324966348	-11.55259404438627	-9.615550939079014	54.87710653518193	0.957786193006622	0	0	0	34.56287324966348	-11.55259404438627	-9.615550939079014	54.87710653518193	0.957786193006622	0	0	0	-5.159080005523819	-4.819823003844034	16.95989987047462	73.64165148970173	-6.147048245049685	8.048408108683876	92.19978172130139	111.3093536286275	0	0	41.69938769037503	2.678786753767985	3.211565914281049	36.7398626402553	132.2765468777037	0	0
16.23999999999974	-9.324632424674373	-3.022640436322795	21.12501494539577	0	0.9399999999999999	0	34.56875468302641	-11.54960932924944	-9.616025317927502	54.87715231370638	0.9577869919926003	0	0	0	34.56875468302641	-11.54960932924944	-9.616025317927502	54.87715231370638	0.9577869919926003	0	0	0	-5.174357511450703	-4.81943840610946	16.82160679266238	73.94129248732878	-5.762615356616415	8.30100776736921	90.52216963307232	111.3275475467443	0	0	41.72413205815702	2.679236495666499	3.197888856089193	36.73748031492447	132.3192465237137	0	0
16.25999999999974	-9.325483222842376	-3.039313967365918	21.34860243280804	0	0.9399999999999999	0	34.57399719277116	-11.54697082525283	-9.616445994283252	54.87719340838694	0.9577877092300813	0	0	0	34.57399719277116	-11.54697082525283	-9.616445994283252	54.87719340838694	0.9577877092300813	0	0	0	-5.192328662507982	-4.812421965977721	16.63397167900725	74.31354322425928	-5.401279165683305	8.652623766462522	88.19814222649752	111.2652736971065	0	0	41.75445176230337	2.694504620726786	3.189883138486104	36.75716851863341	132.3374827304058	0	0
16.27999999999974	-9.320600076955113	-3.050263241329927	21.49096712428683	0	0.9399999999999999	0	34.57986315638117	-11.54399651992255	-9.616919065575296	54.87723900512281	0.9577885050432504	0	0	0	34.57986315638117	-11.54399651992255	-9.616919065575296	54.87723900512281	0.9577885050432504	0	0	0	-5.198954456796621	-4.810549579880066	16.52035256564259	74.67780786929529	-5.086692837589653	9.137708659875882	86.47099083154097	111.4337890493308	0	0	41.78527757371069	2.722291277775933	3.181035232522974	36.73651736882467	132.3600968012061	0	0
16.29999999999974	-9.323506207399793	-3.061617649921975	21.63466182808714	0	0.9399999999999999	0	34.5846063607819	-11.54160114690807	-9.6173006714524	54.87727598502608	0.9577891504643196	0	0	0	34.5846063607819	-11.54160114690807	-9.6173006714524	54.87727598502608	0.9577891504643196	0	0	0	-5.211882403244904	-4.806721656630729	16.40550707336832	75.13152005412886	-4.828464835312242	9.763393358171495	84.67704968273418	111.4608935656203	0	0	41.78233733364094	2.719473741881031	3.217432644592022	36.75765378546537	132.3385642094581	0	0
16.31999999999974	-9.32769938663429	-3.07481357285138	21.78215946485748	0	0.9399999999999999	0	34.58958385358441	-11.53909312921754	-9.617700615303203	54.87731484201164	0.9577898286466549	0	0	0	34.58958385358441	-11.53909312921754	-9.617700615303203	54.87731484201164	0.9577898286466549	0	0	0	-5.228518739659713	-4.800875569229493	16.26297027247866	75.59052848143153	-4.543929215632439	10.32932955173807	82.81440234928502	111.2006260791988	0	0	41.80300737338594	2.712552993318151	3.231486883515422	36.75862569167657	132.3309716042544	0	0
16.33999999999974	-9.331173370298279	-3.092427973106552	21.78086811522851	0	0.9399999999999999	0	34.59408888919289	-11.53684541710433	-9.618060325421803	54.87735034125022	0.9577904482252501	0	0	0	34.59408888919289	-11.53684541710433	-9.618060325421803	54.87735034125022	0.9577904482252501	0	0	0	-5.23947463064433	-4.815963362426615	16.27969248296861	75.59594042587077	-4.514358039551789	10.30538211512722	81.42182438587677	110.8597738530617	0	0	41.81595530065661	2.702785117757923	3.231517808016465	36.76711837715819	132.3438869023389	0	0
16.35999999999974	-9.330283569256471	-3.096278184547083	21.92772836656646	0	0.9399999999999999	0	34.59996670309953	-11.53387407663483	-9.618533784371339	54.87739599172852	0.9577912449764016	0	0	0	34.59996670309953	-11.53387407663483	-9.618533784371339	54.87739599172852	0.9577912449764016	0	0	0	-5.247791808233615	-4.803047562055224	16.13134722941284	76.56954951430053	-4.119044291397971	10.9508702332632	79.64664773045685	110.576409123672	0	0	41.7873942849438	2.703369915329418	3.213023947514139	36.78356860837575	132.326366821126	0	0
16.37999999999974	-9.330196591123824	-3.107017368147174	21.86270540692179	0	0.9399999999999999	0	34.60631775252492	-11.53069191101899	-9.619042513117527	54.87744571377404	0.9577921127898067	0	0	0	34.60631775252492	-11.53069191101899	-9.619042513117527	54.87744571377404	0.9577921127898067	0	0	0	-5.251461105881083	-4.817057923788138	16.187958844199	76.55259210502524	-4.062512060059206	10.96410838288174	77.99775985098705	110.3695086245213	0	0	41.7953985037669	2.676528805129238	3.239391545948031	36.80627510293468	132.2769905849164	0	0
16.39999999999974	-9.330178433783015	-3.1371830657689	22.11909126887146	0	0.9399999999999999	0	34.61275439828187	-11.52753836306881	-9.619550762833123	54.87749717934651	0.9577930110334977	0	0	0	34.61275439828187	-11.52753836306881	-9.619550762833123	54.87749717934651	0.9577930110334977	0	0	0	-5.275135359854668	-4.814182009326923	15.92497959350298	77.1983487898078	-3.765833462439915	11.15531957393703	75.68165376932336	110.0274757139656	0	0	41.82014472746839	2.635501963521723	3.278703662198872	36.80107941686396	132.235946322884	0	0
16.41999999999974	-9.32189762271212	-3.168280570815832	22.36421388999128	0	0.9399999999999999	0	34.61832221144491	-11.52484020330117	-9.619987394562974	54.87754212495544	0.9577937954823579	0	0	0	34.61832221144491	-11.52484020330117	-9.619987394562974	54.87754212495544	0.9577937954823579	0	0	0	-5.289949364779739	-4.816738440513562	15.68225235615465	77.85662792311155	-3.484704505362245	11.27022243292042	73.33301163897519	109.6970863266027	0	0	41.82855087282957	2.610463444313591	3.314198705743245	36.80763996512625	132.2158269199376	0	0
16.43999999999974	-9.311634143491109	-3.208733205185617	22.5131352001513	0	0.9399999999999999	0	34.62270924827806	-11.52271519203177	-9.620331388065996	54.87757752386588	0.9577944133098967	0	0	0	34.62270924827806	-11.52271519203177	-9.620331388065996	54.87757752386588	0.9577944133098967	0	0	0	-5.297975044409885	-4.844140314763023	15.57604565156712	78.44836757534989	-3.357892153730256	11.46061217782272	71.14143467210775	109.3894197077706	0	0	41.84346317325436	2.606777291073471	3.396110541011506	36.81921445941687	132.1818892948238	0	0
16.45999999999974	-9.310662412178594	-3.250744850479459	22.65060028135951	0	0.9399999999999999	0	34.62890541155684	-11.51966719940313	-9.620822208293962	54.87762672863492	0.9577952720951242	0	0	0	34.62890541155684	-11.51966719940313	-9.620822208293962	54.87762672863492	0.9577952720951242	0	0	0	-5.316010085567969	-4.866738698217379	15.45712586191463	79.0061552772539	-3.172092079424443	11.71741130109932	68.77771076394789	109.2785419721306	0	0	41.88515079179063	2.603872117185317	3.416685335172631	36.82427314864934	132.1854635032782	0	0
16.47999999999974	-9.300864403518249	-3.280079887640843	22.93139818281213	0	0.9399999999999999	0	34.63358264051052	-11.5173341907484	-9.621196180390756	54.87766330349213	0.9577959104468058	0	0	0	34.63358264051052	-11.5173341907484	-9.621196180390756	54.87766330349213	0.9577959104468058	0	0	0	-5.330068485879516	-4.87316092620483	15.23584680342708	80.05198845616438	-2.515961275135931	12.22655681382367	65.75524153353793	109.2530353833661	0	0	41.87411260923064	2.60489375601053	3.471995229949824	36.86004140061622	132.1577667965763	0	0
16.49999999999974	-9.281247847163034	-3.262505581714664	22.84010085076275	0	0.9399999999999999	0	34.63684800435097	-11.51573413694097	-9.621454294128942	54.87768928024546	0.9577963638266804	0	0	0	34.63684800435097	-11.51573413694097	-9.621454294128942	54.87768928024546	0.9577963638266804	0	0	0	-5.300906295845334	-4.875849762399518	15.34833310974642	79.97431215259428	-2.528109606682575	12.18595286959834	64.10257493680594	109.3764135599757	0	0	41.81658607472757	2.665050776162433	3.437233106997326	36.84751354298433	132.1551648953741	0	0
16.51999999999974	-9.29270532842672	-3.38089111916214	22.81912657783165	0	0.9399999999999999	0	34.64382577185015	-11.512262643626	-9.622011412126909	54.87774391627902	0.9577973174053562	0	0	0	34.64382577185015	-11.512262643626	-9.622011412126909	54.87774391627902	0.9577973174053562	0	0	0	-5.354821811534697	-4.988804067794176	15.43871408875222	80.13125509145851	-2.501736308551255	11.95452197710107	61.69632636120225	109.2343480305848	0	0	42.01025708645967	2.616781816060552	3.564393310957149	36.87105833126696	132.1661330890925	0	0
